<?xml version="1.0" standalone="no"?>
<!DOCTYPE svg PUBLIC "-//W3C//DTD SVG 20010904//EN"
 "http://www.w3.org/TR/2001/REC-SVG-20010904/DTD/svg10.dtd">
<svg version="1.0" xmlns="http://www.w3.org/2000/svg"
 width="500.000000pt" height="500.000000pt" viewBox="0 0 500.000000 500.000000"
 preserveAspectRatio="xMidYMid meet">
<metadata>
Created by potrace 1.14, written by Peter Selinger 2001-2017
</metadata>
<g transform="translate(0.000000,500.000000) scale(0.100000,-0.100000)"
fill="#000000" stroke="none">
<path d="M990 2535 l0 -1415 1455 0 1455 0 0 155 c0 148 -1 155 -20 155 -19 0
-20 -7 -20 -140 l0 -140 -1417 2 -1418 3 -3 1383 -2 1382 1420 0 1420 0 0
-130 c0 -123 1 -130 20 -130 19 0 20 7 20 145 l0 145 -1455 0 -1455 0 0 -1415z"/>
<path d="M3017 3423 c-2 -5 -12 -31 -21 -59 -16 -51 -18 -52 -84 -76 -53 -20
-68 -29 -70 -48 -4 -21 -1 -22 35 -17 21 3 49 9 62 13 22 6 24 5 18 -17 -4
-13 -17 -70 -28 -127 -17 -80 -32 -124 -71 -195 -75 -139 -82 -141 -75 -32 4
50 9 107 13 127 5 31 3 39 -11 44 -10 4 -26 2 -36 -4 -10 -7 -28 -12 -40 -12
-46 0 -88 -33 -152 -118 -107 -142 -195 -214 -241 -196 -27 10 -19 48 14 67
94 56 121 197 38 197 -32 0 -94 -72 -113 -130 -36 -107 -1 -190 81 -190 34 0
53 8 100 43 33 24 73 61 90 81 27 35 32 37 51 26 17 -11 26 -10 57 9 19 12 47
37 61 54 l25 32 0 -57 c0 -64 13 -106 35 -114 32 -13 64 7 97 57 l33 52 6 -57
c7 -63 30 -96 66 -96 54 0 91 34 176 159 33 48 37 51 37 27 0 -47 27 -86 59
-86 34 0 96 63 132 132 l23 43 8 -35 c17 -68 41 -105 70 -108 19 -2 31 3 43
21 21 33 155 384 155 407 0 28 -28 32 -44 7 -8 -12 -42 -96 -76 -187 -34 -91
-64 -169 -67 -174 -10 -16 -21 19 -33 104 -6 46 -14 88 -16 92 -13 21 -34 3
-64 -54 -39 -76 -112 -188 -121 -188 -15 0 -16 55 -2 146 14 99 10 123 -20
111 -8 -3 -18 -20 -22 -37 -7 -33 -82 -161 -142 -242 -42 -58 -83 -92 -96 -79
-19 19 -8 170 23 327 18 87 36 168 40 180 7 17 22 24 70 33 69 12 92 25 83 48
-5 12 -17 14 -69 8 l-63 -6 9 33 c15 50 12 68 -9 68 -11 0 -22 -3 -24 -7z
m-327 -472 c0 -13 -79 -98 -80 -85 0 15 58 94 70 94 6 0 10 -4 10 -9z m-320
-50 c0 -14 -51 -73 -58 -67 -3 3 6 21 19 41 23 34 39 44 39 26z"/>
<path d="M1725 3216 c-75 -32 -180 -206 -240 -396 -31 -100 -44 -251 -26 -317
48 -178 215 -117 450 162 l42 50 -6 -40 c-7 -48 5 -95 28 -109 28 -18 53 20
101 157 46 132 112 267 134 275 7 2 10 -2 7 -10 -3 -7 0 -20 5 -28 26 -41 69
46 46 92 -42 84 -146 -40 -232 -277 -18 -49 -33 -85 -34 -80 0 6 9 62 21 124
14 76 17 117 10 124 -20 20 -39 -3 -54 -65 -11 -52 -26 -80 -80 -149 -88 -115
-207 -225 -274 -256 -50 -23 -55 -24 -78 -9 -32 21 -40 53 -39 156 1 59 10
112 28 175 53 179 174 383 223 373 32 -6 47 -56 48 -155 0 -102 14 -135 41
-99 19 26 19 157 -1 223 -23 76 -64 103 -120 79z"/>
<path d="M3233 3193 c-21 -8 -15 -43 6 -43 11 0 23 5 27 11 8 14 -17 38 -33
32z"/>
<path d="M3740 3178 c-18 -13 -44 -44 -57 -69 -52 -101 -37 -206 33 -229 31
-11 41 -9 89 14 81 40 225 204 211 241 -10 27 -34 16 -70 -34 -52 -70 -150
-158 -185 -166 -64 -14 -69 27 -10 74 77 63 103 143 57 175 -29 20 -29 20 -68
-6z m26 -76 c-17 -33 -34 -48 -43 -38 -3 3 7 22 22 41 32 42 43 40 21 -3z"/>
<path d="M3570 2518 c-5 -13 -23 -75 -39 -138 -17 -63 -41 -142 -55 -175 -23
-57 -26 -60 -57 -57 -42 3 -108 -36 -142 -85 -14 -21 -38 -68 -52 -106 -26
-63 -40 -85 -51 -75 -2 3 0 47 6 98 9 94 4 120 -24 120 -6 0 -31 -39 -56 -87
-58 -112 -70 -116 -70 -24 0 38 -5 73 -10 76 -15 9 -40 -14 -40 -36 0 -24
-120 -214 -169 -267 -22 -24 -46 -42 -53 -40 -20 7 -21 147 -3 242 37 191 58
272 72 283 8 6 36 14 63 18 63 9 89 27 71 48 -12 16 -27 16 -99 1 -22 -4 -23
-3 -16 44 4 34 2 52 -6 57 -17 11 -35 -13 -54 -71 -15 -47 -20 -52 -59 -64
-61 -18 -97 -38 -97 -55 0 -24 18 -27 70 -11 27 8 50 12 50 8 0 -4 -11 -60
-24 -125 -32 -154 -49 -300 -41 -352 8 -56 42 -89 82 -81 37 8 106 80 165 168
43 65 45 67 61 48 23 -27 59 -25 87 5 31 33 40 32 40 -9 0 -19 8 -44 18 -56
24 -29 53 -21 88 26 20 26 34 34 58 34 53 0 100 42 164 145 l32 50 -3 -155
c-2 -149 -1 -155 18 -155 18 0 21 9 28 100 15 202 37 368 67 506 17 77 29 147
26 155 -8 22 -35 17 -46 -8z m-172 -470 c-13 -23 -41 -60 -63 -82 -36 -38 -39
-39 -43 -19 -8 48 65 143 110 143 18 0 18 -2 -4 -42z"/>
<path d="M2445 2411 c-45 -11 -76 -29 -118 -70 -47 -44 -67 -81 -69 -124 -3
-72 35 -100 162 -117 116 -16 142 -37 160 -130 29 -153 -108 -383 -255 -425
-62 -18 -94 -13 -127 22 -30 32 -29 92 2 153 36 72 152 179 248 228 80 42 100
66 66 79 -22 8 -124 -43 -201 -101 -110 -83 -193 -211 -193 -299 0 -82 68
-147 154 -147 227 1 447 381 334 581 -31 56 -71 77 -169 90 -132 18 -155 46
-104 121 39 57 106 92 179 93 42 0 61 4 64 14 11 34 -57 50 -133 32z"/>
<path d="M3784 2208 c-4 -6 -20 -37 -36 -68 -15 -31 -40 -67 -54 -81 l-27 -24
6 58 c4 45 2 59 -9 64 -24 9 -42 -15 -49 -65 -17 -125 58 -150 138 -47 l42 55
7 -43 c3 -23 7 -74 7 -113 l1 -71 -58 -6 c-67 -6 -113 -26 -160 -71 -43 -40
-62 -76 -62 -118 0 -70 66 -111 144 -88 82 24 140 88 170 190 29 99 11 408
-25 431 -19 12 -26 11 -35 -3z m10 -410 c-28 -94 -94 -158 -162 -158 -63 0
-66 60 -7 116 37 34 102 62 148 63 25 1 27 -2 21 -21z"/>
</g>
</svg>
